<?xml version="1.0" standalone="no"?><!DOCTYPE svg PUBLIC "-//W3C//DTD SVG 1.1//EN" "http://www.w3.org/Graphics/SVG/1.1/DTD/svg11.dtd"><svg t="1650593866758" class="icon" viewBox="0 0 1024 1024" version="1.1" xmlns="http://www.w3.org/2000/svg" p-id="2073" xmlns:xlink="http://www.w3.org/1999/xlink" width="200" height="200"><defs><style type="text/css">@font-face { font-family: feedback-iconfont; src: url("//at.alicdn.com/t/font_1031158_u69w8yhxdu.woff2?t=1630033759944") format("woff2"), url("//at.alicdn.com/t/font_1031158_u69w8yhxdu.woff?t=1630033759944") format("woff"), url("//at.alicdn.com/t/font_1031158_u69w8yhxdu.ttf?t=1630033759944") format("truetype"); }
</style></defs><path d="M855.04 994.304H174.08c-78.848 0-143.36-64.512-143.36-143.36v-680.96c0-78.848 64.512-143.36 143.36-143.36h578.56c22.528 0 40.96 18.432 40.96 40.96s-18.432 40.96-40.96 40.96H174.08c-33.792 0-61.44 27.648-61.44 61.44v680.96c0 33.792 27.648 61.44 61.44 61.44h680.96c33.792 0 61.44-27.648 61.44-61.44v-450.56c0-22.528 18.432-40.96 40.96-40.96s40.96 18.432 40.96 40.96v450.56c0 78.848-64 143.36-143.36 143.36z" fill="#cccccc" p-id="2074"></path><path d="M378.368 757.76c-10.24 0-20.992-4.096-29.184-11.776-15.872-15.872-15.872-41.984 0-57.856L928.768 108.544c15.872-15.872 41.984-15.872 57.856 0 15.872 15.872 15.872 41.984 0 57.856L407.552 745.984c-8.192 7.68-18.432 11.776-29.184 11.776z" fill="#cccccc" p-id="2075"></path></svg>