<?xml version="1.0" standalone="no"?><!DOCTYPE svg PUBLIC "-//W3C//DTD SVG 1.1//EN" "http://www.w3.org/Graphics/SVG/1.1/DTD/svg11.dtd"><svg t="1647613320834" class="icon" viewBox="0 0 1024 1024" version="1.1" xmlns="http://www.w3.org/2000/svg" p-id="2590" data-spm-anchor-id="a313x.7781069.0.i7" xmlns:xlink="http://www.w3.org/1999/xlink" width="200" height="200"><defs><style type="text/css"></style></defs><path d="M691.533 277.555c0 98.667-18.536 135.088-113.309 178.645-89.641 41.221-178.67-79.978-178.67-178.645 0-98.666 85.071-209.869 178.67-178.643 107.844 35.948 113.309 79.977 113.309 178.643" fill="#ffffff" p-id="2591" data-spm-anchor-id="a313x.7781069.0.i3" class=""></path><path d="M513.961 482.344c-112.925 0-204.814-91.863-204.814-204.789 0-112.925 91.889-204.788 204.814-204.788 112.926 0 204.789 91.862 204.789 204.788 0 112.926-91.863 204.789-204.789 204.789z m0-357.288c-84.101 0-152.525 68.411-152.525 152.499 0 84.089 68.424 152.5 152.525 152.5s152.501-68.412 152.501-152.5-68.4-152.499-152.501-152.499z" fill="#8a8a8a" p-id="2592" data-spm-anchor-id="a313x.7781069.0.i8" class="selected"></path><path d="M806.553 728.11c0 163.631-64.672 147.266-228.328 147.266-163.657 0-296.319 16.365-296.319-147.266 0-163.645 132.662-272.766 296.319-272.766 163.656 0.001 228.328 109.122 228.328 272.766" fill="#ffffff" p-id="2593" data-spm-anchor-id="a313x.7781069.0.i0" class=""></path><path d="M435.298 901.992c-84.484 0-156.38-5.105-201.29-49.62-28.595-28.353-42.484-68.998-42.484-124.262 0-26.54 3.217-52.429 9.574-76.914 3.6-13.965 17.949-22.39 31.863-18.739 13.966 3.612 22.366 17.885 18.741 31.864-5.234 20.207-7.889 41.665-7.889 63.789 0 40.608 8.834 69.101 27.013 87.127 35.974 35.679 113.001 35.016 201.852 34.237a4955.73 4955.73 0 0 1 82.517 0c89.132 0.816 165.904 1.455 201.903-34.251 18.18-18.013 27.013-46.518 27.013-87.113 0-142.913-113.615-246.647-270.176-246.647-54.279 0-105.878 13.047-149.23 37.735-12.536 7.124-28.494 2.771-35.668-9.791-7.149-12.548-2.756-28.506 9.779-35.655 51.242-29.157 111.803-44.578 175.12-44.578 183.828 0 322.465 128.513 322.465 298.936 0 55.264-13.891 95.909-42.484 124.25-51.498 51.024-138.535 50.283-239.154 49.402-26.706-0.23-54.97-0.23-81.624 0-12.845 0.116-25.483 0.23-37.841 0.23z" fill="#8a8a8a" p-id="2594" data-spm-anchor-id="a313x.7781069.0.i6" class="selected"></path><path d="M250.628 621.338a26.03 26.03 0 0 1-12.943-3.447c-12.536-7.149-16.902-23.118-9.728-35.666 11.897-20.835 26.527-40.214 43.455-57.563 10.136-10.314 26.68-10.506 36.969-0.434 10.34 10.084 10.544 26.629 0.459 36.97-13.838 14.171-25.787 29.975-35.489 46.965-4.825 8.438-13.632 13.175-22.723 13.175zM512.199 742.701c-34.237 0-62.092-27.854-62.092-62.092v-62.093c0-34.238 27.855-62.093 62.092-62.093 34.238 0 62.094 27.854 62.094 62.093v62.093c0 34.238-27.855 62.092-62.094 62.092z m0-133.989c-5.412 0-9.803 4.405-9.803 9.805v62.093c0 5.399 4.392 9.804 9.803 9.804 5.413 0 9.805-4.404 9.805-9.804v-62.093c0-5.4-4.392-9.805-9.805-9.805z" fill="#8a8a8a" p-id="2595" data-spm-anchor-id="a313x.7781069.0.i9" class="selected"></path><path d="M513.067 901.532c-14.297 0-25.965-11.501-26.143-25.837l-1.737-148.376c-0.178-14.438 11.414-26.284 25.838-26.452h0.306c14.298 0 25.965 11.503 26.144 25.839l1.736 148.376c0.179 14.438-11.412 26.285-25.838 26.45h-0.306z" fill="#8a8a8a" p-id="2596" data-spm-anchor-id="a313x.7781069.0.i10" class="selected"></path></svg>