<?xml version="1.0" standalone="no"?><!DOCTYPE svg PUBLIC "-//W3C//DTD SVG 1.1//EN" "http://www.w3.org/Graphics/SVG/1.1/DTD/svg11.dtd"><svg t="1650944080466" class="icon" viewBox="0 0 1024 1024" version="1.1" xmlns="http://www.w3.org/2000/svg" p-id="5842" xmlns:xlink="http://www.w3.org/1999/xlink" width="200" height="200"><defs><style type="text/css">@font-face { font-family: feedback-iconfont; src: url("//at.alicdn.com/t/font_1031158_u69w8yhxdu.woff2?t=1630033759944") format("woff2"), url("//at.alicdn.com/t/font_1031158_u69w8yhxdu.woff?t=1630033759944") format("woff"), url("//at.alicdn.com/t/font_1031158_u69w8yhxdu.ttf?t=1630033759944") format("truetype"); }
</style></defs><path d="M912.4 256v655.6H112.2V256h800.2m8-48H104.2c-22.1 0-40 17.9-40 40v671.6c0 22.1 17.9 40 40 40h816.1c22.1 0 40-17.9 40-40V248c0.1-22.1-17.9-40-39.9-40z" p-id="5843" fill="#EC4141"></path><path d="M321.9 383.6c-13.3 0-24-10.7-24-24V88.2c0-13.3 10.7-24 24-24s24 10.7 24 24v271.4c0 13.3-10.7 24-24 24zM706 383.6c-13.3 0-24-10.7-24-24V88.2c0-13.3 10.7-24 24-24s24 10.7 24 24v271.4c0 13.3-10.8 24-24 24zM98 488.1h817.6v48H98z" p-id="5844" fill="#EC4141"></path></svg>