<?xml version="1.0" standalone="no"?><!DOCTYPE svg PUBLIC "-//W3C//DTD SVG 1.1//EN" "http://www.w3.org/Graphics/SVG/1.1/DTD/svg11.dtd"><svg t="1729221032454" class="icon" viewBox="0 0 1024 1024" version="1.1" xmlns="http://www.w3.org/2000/svg" p-id="6466" xmlns:xlink="http://www.w3.org/1999/xlink" width="200" height="200"><path d="M765.884298 765.884298h-507.768596v-507.768596h507.768596zM270.809917 753.190083h482.380166V270.809917H270.809917z" fill="#ec6156" p-id="6467"></path><path d="M478.14876 681.256198a160.793388 160.793388 0 1 1 160.793389-160.793388 160.793388 160.793388 0 0 1-160.793389 160.793388z m0-308.892562A148.099174 148.099174 0 1 0 626.247934 520.46281 148.26843 148.26843 0 0 0 478.14876 372.363636z" fill="#ec6156" p-id="6468"></path><path d="M478.14876 562.77686a42.31405 42.31405 0 1 1 42.31405-42.31405 42.31405 42.31405 0 0 1-42.31405 42.31405z m0-71.933885a29.619835 29.619835 0 1 0 29.619835 29.619835 29.619835 29.619835 0 0 0-29.619835-29.619835z" fill="#ec6156" p-id="6469"></path><path d="M698.181818 376.595041a33.85124 33.85124 0 1 1 33.85124-33.851239 33.85124 33.85124 0 0 1-33.85124 33.851239z m0-55.008264a21.157025 21.157025 0 1 0 21.157025 21.157025 21.157025 21.157025 0 0 0-21.157025-21.157025z" fill="#ec6156" p-id="6470"></path><path d="M565.231074 526.302149l-3.469752-12.271075c57.039339-16.163967 112.809256-151.230413 113.317025-152.330578l11.763306 4.823802c-2.369587 5.839339-58.731901 141.836694-121.610579 159.777851z" fill="#ec6156" p-id="6471"></path></svg>