<?xml version="1.0" standalone="no"?><!DOCTYPE svg PUBLIC "-//W3C//DTD SVG 1.1//EN" "http://www.w3.org/Graphics/SVG/1.1/DTD/svg11.dtd"><svg t="1728310748124" class="icon" viewBox="0 0 1024 1024" version="1.1" xmlns="http://www.w3.org/2000/svg" p-id="4602" xmlns:xlink="http://www.w3.org/1999/xlink" width="200" height="200"><path d="M580.5 122.5l-22.1 14.1c-1.4 0.9-3.3 0.5-4.2-0.9-0.9-1.4-0.5-3.3 0.9-4.2l22.1-14.1c1.4-0.9 3.3-0.5 4.2 0.9 0.9 1.4 0.5 3.3-0.9 4.2z" fill="#FFFFFF" p-id="4603"></path><path d="M384 480.7m-3.2 0a3.2 3.2 0 1 0 6.4 0 3.2 3.2 0 1 0-6.4 0Z" fill="#FFFFFF" p-id="4604"></path><path d="M516.2 832H385.9c-3.3 0-6-2.7-6-6s2.7-6 6-6h130.3c3.3 0 6 2.7 6 6 0 3.4-2.7 6-6 6z" fill="#FFFFFF" p-id="4605"></path><path d="M525.3 13m-1.3 0a1.3 1.3 0 1 0 2.6 0 1.3 1.3 0 1 0-2.6 0Z" fill="#FFFFFF" p-id="4606"></path><path d="M163.1 208.3m-13.3 0a13.3 13.3 0 1 0 26.6 0 13.3 13.3 0 1 0-26.6 0Z" fill="#FFFFFF" p-id="4607"></path><path d="M571.2 291.2m-13.3 0a13.3 13.3 0 1 0 26.6 0 13.3 13.3 0 1 0-26.6 0Z" fill="#FFFFFF" p-id="4608"></path><path d="M958.2 560.5l-50 6.4c-3.6 0.5-7-2.1-7.4-5.8-0.5-3.6 2.1-7 5.8-7.4l50-6.4c3.6-0.5 7 2.1 7.4 5.8 0.4 3.6-2.2 6.9-5.8 7.4z" fill="#FFFFFF" p-id="4609"></path><path d="M133.2 851.9c-62 0-113.7-50.2-113.7-113.7s50.2-113.7 113.7-113.7c25.1 0 48.7 8.9 69.4 23.6l5.9 4.4V288.1c0-22.1 17.7-39.9 38.4-39.9L626.1 204h3c20.7-1.5 39.9 16.2 39.9 38.4V669c0 31-11.8 59-33.9 79.7-20.7 20.7-50.2 32.5-79.7 32.5-62 0-113.7-50.2-113.7-113.7 0-62 50.2-113.7 113.7-113.7 25.1 0 50.2 8.9 69.4 23.6l5.9 4.4V384l-383.8 41.3v312.9c-1.6 63.6-51.8 113.7-113.7 113.7z m0-187.4c-41.3 0-75.3 33.9-75.3 75.3 0 41.3 33.9 75.3 75.3 75.3s75.3-33.9 75.3-75.3c-1.5-42.8-34-75.3-75.3-75.3z m422.1-70.9c-41.3 0-75.3 33.9-75.3 75.3 0 41.3 33.9 75.3 75.3 75.3 41.3 0 75.3-33.9 75.3-75.3 0-41.3-34-75.3-75.3-75.3zM245.3 387l383.8-41.3V240.9l-379.3 44.3h-4.4l-0.1 101.8z" fill="#83C2E2" p-id="4610"></path><path d="M1003.6 398c-1.2 6.3-3.2 11.4-5.9 15.4s-5.1 5.8-6.9 5.5c-1.9-0.3-3.6-1.6-5.1-4.1-1.5-2.5-2.7-7-3.5-13.5-1.4-10.7-4.8-18.5-10.4-23.6-5.6-5.1-14.2-8.7-26-10.9-12.3-2.5-23.1-7.4-32.5-15-9.4-7.5-17.3-14.6-23.5-21.1-6-5.8-10.6-7.8-13.9-6.2s-4.9 4.7-4.9 9v17.6l-0.4 180.4v23.4c0.3 6.5-0.7 13.9-3.1 21.9-2.3 8.1-6.7 15.7-13.1 22.8-6.4 7.1-14.9 13.2-25.6 18.2-10.6 5.1-23.9 8-39.7 8.8-16.1 0.8-30.6-2.1-43.6-8.6s-23-14.8-30.1-24.8c-7.1-10-10.6-20.9-10.4-32.8 0.1-11.9 5.2-23 15.3-33.4 10.1-10.4 21-17.6 32.8-21.7 11.7-4.1 23-6.4 34-6.8 10.9-0.4 20.7 0.4 29.3 2.2 8.6 1.9 14.9 3.7 19 5.3 0 0 0.1-184.6 0.4-225.1 0-7.9 2.1-14.4 6.1-19.5 4.1-5.1 9.5-8 16.4-8.8 5.7-0.9 10.4 0.3 14.1 3.4 3.7 3.1 7.4 7.5 11.3 13.1 3.8 5.6 8.5 12 14.1 19.1 5.6 7.1 13.2 14.1 22.7 20.9 8.2 6.3 15.3 10.8 21.5 13.5 5.7 2.6 11.4 5.1 17.2 7.6 5.3 2.3 10.6 5.1 15.8 8.4 5.2 3.3 10.9 8.6 17.2 16 6.3 7.1 10.1 14.5 11.5 22.1 1.1 8.1 1.2 15-0.1 21.3z" fill="#EFE925" p-id="4611"></path><path d="M741.2 538.8m-15.3 0a15.3 15.3 0 1 0 30.6 0 15.3 15.3 0 1 0-30.6 0Z" fill="#FFFFFF" p-id="4612"></path></svg>