<?xml version="1.0" standalone="no"?><!DOCTYPE svg PUBLIC "-//W3C//DTD SVG 1.1//EN" "http://www.w3.org/Graphics/SVG/1.1/DTD/svg11.dtd"><svg t="1728345702073" class="icon" viewBox="0 0 1024 1024" version="1.1" xmlns="http://www.w3.org/2000/svg" p-id="8579" data-spm-anchor-id="a313x.search_index.0.i2.17343a81Be3jda" width="200" height="200" xmlns:xlink="http://www.w3.org/1999/xlink"><path d="M488.2 470.1c-0.2 0-0.4 0-0.5-0.1-1-0.3-1.6-1.2-1.4-2.2 6-43.6 6.1-66.2 6.2-90.2 0.1-16.3 0.1-33.2 2-57.7 3.8-49.7 21.8-96.1 53.3-137.9 23.8-31.6 60.6-49.7 100.7-49.7 12.5 0 25.5 1.7 38.5 5.1 36 9.4 62.2 31 77.8 47.4 19.4 20.4 33.7 52.2 39.5 66.5 12.1 29.4 16.4 54.3 51.3 77 13.6 8.9 23.5 12.7 32.2 16.1 14.1 5.5 25.3 9.8 43.3 32.5 0.6 0.8 0.6 1.9-0.1 2.7-0.4 0.4-0.9 0.6-1.4 0.6-0.4 0-0.9-0.1-1.2-0.4-19.7-20.1-39.9-23.2-65.4-27.8-42.7-7.7-66.5-42.9-80.9-74.8-16.8-37.1-53.4-78.5-79.4-90.3-12.8-6.4-40-11.4-55.4-11.4-31.7 0-60.7 13.1-86.1 38.8-13.2 13.3-35.2 48.6-43 85.4-7.8 36.9-9.8 64-11.6 87.9-2.2 29.8-4 53.4-16.4 81.4-0.5 0.6-1.2 1.1-2 1.1z" fill="#ec6156" p-id="8580"></path><path d="M776.9 405.1c-19.5 0-40.3-3.8-52.3-7.9-26.6-9.3-59.6-33.7-71.9-49.2-13.3-16.7-27.7-28.4-45.3-27.3-6.5 0.4-11.2 4.4-12.8 5.3-5.9 3.1-13.3 5.4-20.6 5.4-13 0-22.1-7.3-22.1-17.7 0-6.7 2.2-12.4 6.7-16.9 8.8-8.8 22.8-9.8 28.5-9.8h0.2c25.5 0.1 52 16.7 71 42.6 22.8 31.1 46.8 49.8 76 59.7 21.4 7.3 38.5 8.3 60.6 8.3 6.7 0 14-1.6 21.7-1.8 1 0 1.8 0.7 2 1.7 0.2 1-0.4 1.9-1.3 2.2-10.4 3.5-24.3 5.4-40.4 5.4zM277 791.7c-52 0-94.6-19.9-109-27.7-43.4-23.7-62.4-63.1-65.1-104.6-2.6-41 13.9-81.3 45.3-110.4 28.9-26.8 74.3-42 117-42 19.5 0 53.9 8.1 78.6 27.1 36.6 28.1 43.9 64.1 43.3 78.2-1.3 32.1-22.6 59.7-43.3 70.4-8.2 4.2-15.7 6.4-22.4 6.4-8.9 0-16.3-3.9-21.4-11.2-5.8-8.5-7.3-19.9-5.7-24.1 5.4-14.3 16.2-15.8 19.3-15.9h0.1c0.7 0 1.4 0.3 1.8 0.9 0.4 0.6 0.6 1.4 0.4 2.1-1.5 4.6-1.1 8.7 1 11.6 1.5 2.1 3.8 3.3 6.1 3.3 3.8 0 7.6-2 11-5.8 7.9-8.9 11.7-25.5 9.7-42.1-4.1-33.7-34.9-63.9-70.5-69-16-2.3-34.9-2.1-45.9-0.9-40.8 4.1-104.8 25-102.3 118.8 0.9 33.7 22.1 63.5 46.4 76.3 26 13.8 65.8 25.6 109.9 25.6 17.7 0 62.2-5.8 79.2-11.2 51.3-16.5 79-66.7 88.8-125.9 4.7-28.1 11.1-65.9 26.3-92.4 0.4-0.8 1.2-1.2 2-1.2 0.2 0 0.4 0 0.6 0.1 1 0.3 2 1.3 1.6 2.4C463.3 575 460.7 605.2 459 659c-1.2 39.1-30.1 80.7-63.1 103.2-28.4 19.2-76.6 29.5-118.9 29.5z" fill="#ec6156" p-id="8581"></path></svg>