<?xml version="1.0" standalone="no"?><!DOCTYPE svg PUBLIC "-//W3C//DTD SVG 1.1//EN" "http://www.w3.org/Graphics/SVG/1.1/DTD/svg11.dtd"><svg t="1649932304778" class="icon" viewBox="0 0 1024 1024" version="1.1" xmlns="http://www.w3.org/2000/svg" p-id="2578" xmlns:xlink="http://www.w3.org/1999/xlink" width="200" height="200"><defs><style type="text/css">@font-face { font-family: feedback-iconfont; src: url("//at.alicdn.com/t/font_1031158_u69w8yhxdu.woff2?t=1630033759944") format("woff2"), url("//at.alicdn.com/t/font_1031158_u69w8yhxdu.woff?t=1630033759944") format("woff"), url("//at.alicdn.com/t/font_1031158_u69w8yhxdu.ttf?t=1630033759944") format("truetype"); }
</style></defs><path d="M512 149.333333a21.333333 21.333333 0 0 1 21.333333-21.333333h426.666667a21.333333 21.333333 0 0 1 0 42.666667H533.333333a21.333333 21.333333 0 0 1-21.333333-21.333334z m448 746.666667H64a21.333333 21.333333 0 0 0 0 42.666667h896a21.333333 21.333333 0 0 0 0-42.666667zM64 554.666667h896a21.333333 21.333333 0 0 0 0-42.666667H64a21.333333 21.333333 0 0 0 0 42.666667zM347.426667 42.666667A121.866667 121.866667 0 0 0 256 83.92 121.866667 121.866667 0 0 0 164.573333 42.666667C97.333333 42.666667 42.666667 97.333333 42.666667 164.573333c0 29.046667 2.38 56.293333 31.64 95.653334 26.786667 36 75.426667 82.78 167.88 161.333333a21.333333 21.333333 0 0 0 27.626666 0c92.453333-78.58 141.093333-125.333333 167.88-161.333333 29.26-39.333333 31.64-66.606667 31.64-95.653334C469.333333 97.333333 414.666667 42.666667 347.426667 42.666667z" fill="#cccccc" p-id="2579"></path></svg>