<?xml version="1.0" standalone="no"?><!DOCTYPE svg PUBLIC "-//W3C//DTD SVG 1.1//EN" "http://www.w3.org/Graphics/SVG/1.1/DTD/svg11.dtd"><svg t="1728309424360" class="icon" viewBox="0 0 1024 1024" version="1.1" xmlns="http://www.w3.org/2000/svg" p-id="5126" xmlns:xlink="http://www.w3.org/1999/xlink" width="200" height="200"><path d="M770.051533 313.11157869H254.83220512c-24.00821911 0-43.59774757 19.58952848-43.59774758 43.59774759v494.15690252c0 24.00821911 19.58952848 43.59774757 43.59774758 43.59774759h515.21932788c24.00821911 0 43.59774757-19.58952848 43.59774761-43.59774759V356.85661596c0-24.15550879-19.58952848-43.74503728-43.59774761-43.74503727z m15.7599966 537.75465011c0 8.69009158-7.06990501 15.75999659-15.7599966 15.75999659H254.83220512c-8.69009158 0-15.75999659-7.06990501-15.7599966-15.75999659V356.85661596c0-8.69009158 7.06990501-15.75999659 15.7599966-15.75999661h515.21932788c8.69009158 0 15.75999659 7.06990501 15.7599966 15.75999661v494.00961284zM277.22023765 255.52131075h470.29597313c7.65906378 0 13.99252034-6.1861669 13.99252032-13.99252032s-6.1861669-13.99252034-13.99252032-13.99252037H277.22023765c-7.65906378 0-13.99252034 6.1861669-13.99252034 13.99252037s6.33345658 13.99252034 13.99252034 13.99252032zM321.84901307 168.62039497h381.03842231c6.92261532 0 12.51962347-5.59700814 12.51962346-12.51962348s-5.59700814-12.51962347-12.51962346-12.51962346H321.84901307c-6.92261532 0-12.51962347 5.59700814-12.51962347 12.51962346s5.59700814 12.51962347 12.51962347 12.51962348z" fill="#bfbfbf" p-id="5127"></path><path d="M634.10315118 451.71117489l-194.56967758 31.96186226c-3.38766283 0.58915875-5.89158752 3.5349525-5.89158751 6.92261531v173.94912129c0 13.40336159-9.72111939 24.74466755-22.9771913 26.6594335l-19.00036972 2.79850407c-16.20186565 2.35663501-28.13233036 16.34915535-28.13233037 32.55102099v3.38766281c0 20.17868721 17.96934191 35.64410444 37.85344978 32.55102102l24.89195723-3.68224219c22.97719129-3.38766283 39.9155054-23.12448098 39.91550538-46.39625166V563.35675824c0-3.5349525 2.50392469-6.48074626 5.89158751-6.92261533l129.61492527-21.20971503c4.27140094-0.73644845 8.24822251 2.65121438 8.24822251 6.92261531v94.55997958c0 13.40336159-9.72111939 24.74466755-22.97719129 26.65943349l-19.00036975 2.79850406c-16.20186565 2.35663501-28.13233036 16.34915535-28.13233035 32.55102101v3.3876628c0 20.17868721 17.96934191 35.64410444 37.85344976 32.55102103l24.89195723-3.68224221c22.97719129-3.38766283 39.9155054-23.12448098 39.9155054-46.39625166V458.63379022c-0.1472897-4.41869063-4.12411126-7.65906378-8.3955122-6.92261533z" fill="#bfbfbf" p-id="5128"></path></svg>